# Tiled2Unity generated file. Do not modify by hand.
# Wavefront file for 'levelOne_mesh_0002.obj'

# Vertices (Count = 508)
v -20 -1 0
v -21 -1 0
v -21 0 0
v -20 0 0
v -26 -1 0
v -27 -1 0
v -27 0 0
v -26 0 0
v -27 -1 0
v -28 -1 0
v -28 0 0
v -27 0 0
v -28 -1 0
v -29 -1 0
v -29 0 0
v -28 0 0
v -20 -2 0
v -21 -2 0
v -21 -1 0
v -20 -1 0
v -26 -2 0
v -27 -2 0
v -27 -1 0
v -26 -1 0
v -27 -2 0
v -28 -2 0
v -28 -1 0
v -27 -1 0
v -28 -2 0
v -29 -2 0
v -29 -1 0
v -28 -1 0
v -26 -3 0
v -27 -3 0
v -27 -2 0
v -26 -2 0
v -27 -3 0
v -28 -3 0
v -28 -2 0
v -27 -2 0
v -28 -3 0
v -29 -3 0
v -29 -2 0
v -28 -2 0
v -10 -4 0
v -11 -4 0
v -11 -3 0
v -10 -3 0
v -13 -4 0
v -14 -4 0
v -14 -3 0
v -13 -3 0
v -20 -4 0
v -21 -4 0
v -21 -3 0
v -20 -3 0
v -14 -5 0
v -15 -5 0
v -15 -4 0
v -14 -4 0
v -9 -6 0
v -10 -6 0
v -10 -5 0
v -9 -5 0
v -11 -6 0
v -12 -6 0
v -12 -5 0
v -11 -5 0
v -12 -6 0
v -13 -6 0
v -13 -5 0
v -12 -5 0
v -10 -7 0
v -11 -7 0
v -11 -6 0
v -10 -6 0
v -11 -7 0
v -12 -7 0
v -12 -6 0
v -11 -6 0
v -12 -7 0
v -13 -7 0
v -13 -6 0
v -12 -6 0
v -16 -7 0
v -17 -7 0
v -17 -6 0
v -16 -6 0
v -20 -7 0
v -21 -7 0
v -21 -6 0
v -20 -6 0
v -22 -7 0
v -23 -7 0
v -23 -6 0
v -22 -6 0
v -23 -7 0
v -24 -7 0
v -24 -6 0
v -23 -6 0
v -10 -8 0
v -11 -8 0
v -11 -7 0
v -10 -7 0
v -11 -8 0
v -12 -8 0
v -12 -7 0
v -11 -7 0
v -20 -8 0
v -21 -8 0
v -21 -7 0
v -20 -7 0
v -22 -8 0
v -23 -8 0
v -23 -7 0
v -22 -7 0
v -23 -8 0
v -24 -8 0
v -24 -7 0
v -23 -7 0
v -9 -9 0
v -10 -9 0
v -10 -8 0
v -9 -8 0
v -10 -9 0
v -11 -9 0
v -11 -8 0
v -10 -8 0
v -11 -9 0
v -12 -9 0
v -12 -8 0
v -11 -8 0
v -13 -9 0
v -14 -9 0
v -14 -8 0
v -13 -8 0
v -16 -9 0
v -17 -9 0
v -17 -8 0
v -16 -8 0
v -17 -9 0
v -18 -9 0
v -18 -8 0
v -17 -8 0
v -18 -9 0
v -19 -9 0
v -19 -8 0
v -18 -8 0
v -19 -9 0
v -20 -9 0
v -20 -8 0
v -19 -8 0
v -22 -9 0
v -23 -9 0
v -23 -8 0
v -22 -8 0
v -23 -9 0
v -24 -9 0
v -24 -8 0
v -23 -8 0
v -24 -9 0
v -25 -9 0
v -25 -8 0
v -24 -8 0
v -4 -10 0
v -5 -10 0
v -5 -9 0
v -4 -9 0
v -8 -10 0
v -9 -10 0
v -9 -9 0
v -8 -9 0
v -9 -10 0
v -10 -10 0
v -10 -9 0
v -9 -9 0
v -10 -10 0
v -11 -10 0
v -11 -9 0
v -10 -9 0
v -11 -10 0
v -12 -10 0
v -12 -9 0
v -11 -9 0
v -14 -10 0
v -15 -10 0
v -15 -9 0
v -14 -9 0
v -16 -10 0
v -17 -10 0
v -17 -9 0
v -16 -9 0
v -17 -10 0
v -18 -10 0
v -18 -9 0
v -17 -9 0
v -18 -10 0
v -19 -10 0
v -19 -9 0
v -18 -9 0
v -19 -10 0
v -20 -10 0
v -20 -9 0
v -19 -9 0
v -20 -10 0
v -21 -10 0
v -21 -9 0
v -20 -9 0
v -22 -10 0
v -23 -10 0
v -23 -9 0
v -22 -9 0
v -23 -10 0
v -24 -10 0
v -24 -9 0
v -23 -9 0
v -24 -10 0
v -25 -10 0
v -25 -9 0
v -24 -9 0
v -25 -10 0
v -26 -10 0
v -26 -9 0
v -25 -9 0
v -8 -11 0
v -9 -11 0
v -9 -10 0
v -8 -10 0
v -9 -11 0
v -10 -11 0
v -10 -10 0
v -9 -10 0
v -10 -11 0
v -11 -11 0
v -11 -10 0
v -10 -10 0
v -11 -11 0
v -12 -11 0
v -12 -10 0
v -11 -10 0
v -14 -11 0
v -15 -11 0
v -15 -10 0
v -14 -10 0
v -16 -11 0
v -17 -11 0
v -17 -10 0
v -16 -10 0
v -17 -11 0
v -18 -11 0
v -18 -10 0
v -17 -10 0
v -18 -11 0
v -19 -11 0
v -19 -10 0
v -18 -10 0
v -19 -11 0
v -20 -11 0
v -20 -10 0
v -19 -10 0
v -20 -11 0
v -21 -11 0
v -21 -10 0
v -20 -10 0
v -21 -11 0
v -22 -11 0
v -22 -10 0
v -21 -10 0
v -23 -11 0
v -24 -11 0
v -24 -10 0
v -23 -10 0
v -24 -11 0
v -25 -11 0
v -25 -10 0
v -24 -10 0
v -25 -11 0
v -26 -11 0
v -26 -10 0
v -25 -10 0
v -9 -12 0
v -10 -12 0
v -10 -11 0
v -9 -11 0
v -13 -12 0
v -14 -12 0
v -14 -11 0
v -13 -11 0
v -14 -12 0
v -15 -12 0
v -15 -11 0
v -14 -11 0
v -16 -12 0
v -17 -12 0
v -17 -11 0
v -16 -11 0
v -17 -12 0
v -18 -12 0
v -18 -11 0
v -17 -11 0
v -18 -12 0
v -19 -12 0
v -19 -11 0
v -18 -11 0
v -19 -12 0
v -20 -12 0
v -20 -11 0
v -19 -11 0
v -20 -12 0
v -21 -12 0
v -21 -11 0
v -20 -11 0
v -23 -12 0
v -24 -12 0
v -24 -11 0
v -23 -11 0
v -24 -12 0
v -25 -12 0
v -25 -11 0
v -24 -11 0
v -25 -12 0
v -26 -12 0
v -26 -11 0
v -25 -11 0
v -26 -12 0
v -27 -12 0
v -27 -11 0
v -26 -11 0
v -11 -13 0
v -12 -13 0
v -12 -12 0
v -11 -12 0
v -13 -13 0
v -14 -13 0
v -14 -12 0
v -13 -12 0
v -14 -13 0
v -15 -13 0
v -15 -12 0
v -14 -12 0
v -18 -13 0
v -19 -13 0
v -19 -12 0
v -18 -12 0
v -19 -13 0
v -20 -13 0
v -20 -12 0
v -19 -12 0
v -20 -13 0
v -21 -13 0
v -21 -12 0
v -20 -12 0
v -23 -13 0
v -24 -13 0
v -24 -12 0
v -23 -12 0
v -25 -13 0
v -26 -13 0
v -26 -12 0
v -25 -12 0
v -26 -13 0
v -27 -13 0
v -27 -12 0
v -26 -12 0
v -4 -14 0
v -5 -14 0
v -5 -13 0
v -4 -13 0
v -12 -14 0
v -13 -14 0
v -13 -13 0
v -12 -13 0
v -13 -14 0
v -14 -14 0
v -14 -13 0
v -13 -13 0
v -25 -14 0
v -26 -14 0
v -26 -13 0
v -25 -13 0
v -26 -14 0
v -27 -14 0
v -27 -13 0
v -26 -13 0
v 0 -15 0
v -1 -15 0
v -1 -14 0
v 0 -14 0
v -1 -15 0
v -2 -15 0
v -2 -14 0
v -1 -14 0
v -2 -15 0
v -3 -15 0
v -3 -14 0
v -2 -14 0
v -3 -15 0
v -4 -15 0
v -4 -14 0
v -3 -14 0
v -4 -15 0
v -5 -15 0
v -5 -14 0
v -4 -14 0
v -5 -15 0
v -6 -15 0
v -6 -14 0
v -5 -14 0
v -6 -15 0
v -7 -15 0
v -7 -14 0
v -6 -14 0
v -7 -15 0
v -8 -15 0
v -8 -14 0
v -7 -14 0
v -8 -15 0
v -9 -15 0
v -9 -14 0
v -8 -14 0
v -11 -15 0
v -12 -15 0
v -12 -14 0
v -11 -14 0
v -12 -15 0
v -13 -15 0
v -13 -14 0
v -12 -14 0
v -14 -15 0
v -15 -15 0
v -15 -14 0
v -14 -14 0
v 0 -16 0
v -1 -16 0
v -1 -15 0
v 0 -15 0
v -1 -16 0
v -2 -16 0
v -2 -15 0
v -1 -15 0
v -2 -16 0
v -3 -16 0
v -3 -15 0
v -2 -15 0
v -3 -16 0
v -4 -16 0
v -4 -15 0
v -3 -15 0
v -4 -16 0
v -5 -16 0
v -5 -15 0
v -4 -15 0
v -5 -16 0
v -6 -16 0
v -6 -15 0
v -5 -15 0
v -6 -16 0
v -7 -16 0
v -7 -15 0
v -6 -15 0
v -7 -16 0
v -8 -16 0
v -8 -15 0
v -7 -15 0
v -8 -16 0
v -9 -16 0
v -9 -15 0
v -8 -15 0
v -12 -16 0
v -13 -16 0
v -13 -15 0
v -12 -15 0
v 0 -17 0
v -1 -17 0
v -1 -16 0
v 0 -16 0
v -1 -17 0
v -2 -17 0
v -2 -16 0
v -1 -16 0
v -2 -17 0
v -3 -17 0
v -3 -16 0
v -2 -16 0
v -3 -17 0
v -4 -17 0
v -4 -16 0
v -3 -16 0
v -4 -17 0
v -5 -17 0
v -5 -16 0
v -4 -16 0
v -5 -17 0
v -6 -17 0
v -6 -16 0
v -5 -16 0
v -6 -17 0
v -7 -17 0
v -7 -16 0
v -6 -16 0
v -7 -17 0
v -8 -17 0
v -8 -16 0
v -7 -16 0
v -14 -17 0
v -15 -17 0
v -15 -16 0
v -14 -16 0

# Texture cooridinates (Count = 89)
vt 0.71875 0.625
vt 0.75 0.625
vt 0.75 0.65625
vt 0.71875 0.65625
vt 0.1875 0.625
vt 0.21875 0.625
vt 0.21875 0.65625
vt 0.1875 0.65625
vt 0.25 0.625
vt 0.25 0.65625
vt 0.28125 0.625
vt 0.28125 0.65625
vt 0.6875 0.625
vt 0.6875 0.65625
vt 0.1875 0.59375
vt 0.21875 0.59375
vt 0.25 0.59375
vt 0.28125 0.59375
vt 0.1875 0.5625
vt 0.21875 0.5625
vt 0.25 0.5625
vt 0.28125 0.5625
vt 0.75 0.40625
vt 0.78125 0.40625
vt 0.78125 0.4375
vt 0.75 0.4375
vt 0.65625 0.96875
vt 0.6875 0.96875
vt 0.6875 1
vt 0.65625 1
vt 0.71875 0.96875
vt 0.75 0.96875
vt 0.75 1
vt 0.71875 1
vt 0.71875 0.8125
vt 0.75 0.8125
vt 0.75 0.84375
vt 0.71875 0.84375
vt 0.65625 0.625
vt 0.65625 0.65625
vt 0.46875 0.09375
vt 0.5 0.09375
vt 0.5 0.125
vt 0.46875 0.125
vt 0.65625 0.8125
vt 0.6875 0.8125
vt 0.6875 0.84375
vt 0.65625 0.84375
vt 0.46875 0.0625
vt 0.5 0.0625
vt 0.65625 0.90625
vt 0.6875 0.90625
vt 0.6875 0.9375
vt 0.65625 0.9375
vt 0.71875 0.90625
vt 0.71875 0.9375
vt 0.75 0.90625
vt 0.75 0.9375
vt 0.65625 0.875
vt 0.6875 0.875
vt 0.71875 0.875
vt 0.75 0.875
vt 0.84375 0.0625
vt 0.875 0.0625
vt 0.875 0.09375
vt 0.84375 0.09375
vt 0.90625 0.0625
vt 0.90625 0.09375
vt 0.84375 0.03125
vt 0.875 0.03125
vt 0.90625 0.03125
vt 0.84375 0
vt 0.875 0
vt 0.90625 0
vt 0.21875 0.15625
vt 0.25 0.15625
vt 0.25 0.1875
vt 0.21875 0.1875
vt 0.28125 0.15625
vt 0.28125 0.1875
vt 0.21875 0.125
vt 0.25 0.125
vt 0.1875 0.0625
vt 0.21875 0.0625
vt 0.21875 0.09375
vt 0.1875 0.09375
vt 0.28125 0.125
vt 0.25 0.09375
vt 0.28125 0.09375

# Normal
vn 0 0 -1

# Mesh description
g levelOne_mesh_0002

# Faces
f 1/1/1 2/2/1 3/3/1 4/4/1
f 5/5/1 6/6/1 7/7/1 8/8/1
f 9/6/1 10/9/1 11/10/1 12/7/1
f 13/9/1 14/11/1 15/12/1 16/10/1
f 17/13/1 18/1/1 19/4/1 20/14/1
f 21/15/1 22/16/1 23/6/1 24/5/1
f 25/16/1 26/17/1 27/9/1 28/6/1
f 29/17/1 30/18/1 31/11/1 32/9/1
f 33/19/1 34/20/1 35/16/1 36/15/1
f 37/20/1 38/21/1 39/17/1 40/16/1
f 41/21/1 42/22/1 43/18/1 44/17/1
f 45/23/1 46/24/1 47/25/1 48/26/1
f 49/1/1 50/2/1 51/3/1 52/4/1
f 53/27/1 54/28/1 55/29/1 56/30/1
f 57/27/1 58/28/1 59/29/1 60/30/1
f 61/31/1 62/32/1 63/33/1 64/34/1
f 65/35/1 66/36/1 67/37/1 68/38/1
f 69/35/1 70/36/1 71/37/1 72/38/1
f 73/35/1 74/36/1 75/37/1 76/38/1
f 77/35/1 78/36/1 79/37/1 80/38/1
f 81/35/1 82/36/1 83/37/1 84/38/1
f 85/39/1 86/13/1 87/14/1 88/40/1
f 89/41/1 90/42/1 91/43/1 92/44/1
f 93/45/1 94/46/1 95/47/1 96/48/1
f 97/45/1 98/46/1 99/47/1 100/48/1
f 101/35/1 102/36/1 103/37/1 104/38/1
f 105/35/1 106/36/1 107/37/1 108/38/1
f 109/49/1 110/50/1 111/42/1 112/41/1
f 113/45/1 114/46/1 115/47/1 116/48/1
f 117/45/1 118/46/1 119/47/1 120/48/1
f 121/35/1 122/36/1 123/37/1 124/38/1
f 125/35/1 126/36/1 127/37/1 128/38/1
f 129/35/1 130/36/1 131/37/1 132/38/1
f 133/1/1 134/2/1 135/3/1 136/4/1
f 137/51/1 138/52/1 139/53/1 140/54/1
f 141/52/1 142/55/1 143/56/1 144/53/1
f 145/52/1 146/55/1 147/56/1 148/53/1
f 149/55/1 150/57/1 151/58/1 152/56/1
f 153/45/1 154/46/1 155/47/1 156/48/1
f 157/45/1 158/46/1 159/47/1 160/48/1
f 161/45/1 162/46/1 163/47/1 164/48/1
f 165/39/1 166/13/1 167/14/1 168/40/1
f 169/35/1 170/36/1 171/37/1 172/38/1
f 173/35/1 174/36/1 175/37/1 176/38/1
f 177/35/1 178/36/1 179/37/1 180/38/1
f 181/35/1 182/36/1 183/37/1 184/38/1
f 185/46/1 186/35/1 187/38/1 188/47/1
f 189/59/1 190/60/1 191/52/1 192/51/1
f 193/60/1 194/61/1 195/55/1 196/52/1
f 197/60/1 198/61/1 199/55/1 200/52/1
f 201/53/1 202/56/1 203/31/1 204/28/1
f 205/55/1 206/57/1 207/58/1 208/56/1
f 209/45/1 210/46/1 211/47/1 212/48/1
f 213/45/1 214/46/1 215/47/1 216/48/1
f 217/45/1 218/46/1 219/47/1 220/48/1
f 221/45/1 222/46/1 223/47/1 224/48/1
f 225/35/1 226/36/1 227/37/1 228/38/1
f 229/35/1 230/36/1 231/37/1 232/38/1
f 233/35/1 234/36/1 235/37/1 236/38/1
f 237/27/1 238/28/1 239/29/1 240/30/1
f 241/46/1 242/35/1 243/38/1 244/47/1
f 245/48/1 246/47/1 247/60/1 248/59/1
f 249/60/1 250/61/1 251/55/1 252/52/1
f 253/60/1 254/61/1 255/55/1 256/52/1
f 257/60/1 258/61/1 259/55/1 260/52/1
f 261/61/1 262/62/1 263/57/1 264/55/1
f 265/39/1 266/13/1 267/14/1 268/40/1
f 269/45/1 270/46/1 271/47/1 272/48/1
f 273/45/1 274/46/1 275/47/1 276/48/1
f 277/45/1 278/46/1 279/47/1 280/48/1
f 281/35/1 282/36/1 283/37/1 284/38/1
f 285/46/1 286/35/1 287/38/1 288/47/1
f 289/46/1 290/35/1 291/38/1 292/47/1
f 293/23/1 294/24/1 295/25/1 296/26/1
f 297/48/1 298/47/1 299/60/1 300/59/1
f 301/31/1 302/32/1 303/33/1 304/34/1
f 305/60/1 306/61/1 307/55/1 308/52/1
f 309/61/1 310/62/1 311/57/1 312/55/1
f 313/45/1 314/46/1 315/47/1 316/48/1
f 317/45/1 318/46/1 319/47/1 320/48/1
f 321/63/1 322/64/1 323/65/1 324/66/1
f 325/64/1 326/67/1 327/68/1 328/65/1
f 329/39/1 330/13/1 331/14/1 332/40/1
f 333/46/1 334/35/1 335/38/1 336/47/1
f 337/46/1 338/35/1 339/38/1 340/47/1
f 341/48/1 342/47/1 343/60/1 344/59/1
f 345/47/1 346/38/1 347/61/1 348/60/1
f 349/38/1 350/37/1 351/62/1 352/61/1
f 353/45/1 354/46/1 355/47/1 356/48/1
f 357/69/1 358/70/1 359/64/1 360/63/1
f 361/70/1 362/71/1 363/67/1 364/64/1
f 365/39/1 366/13/1 367/14/1 368/40/1
f 369/46/1 370/35/1 371/38/1 372/47/1
f 373/46/1 374/35/1 375/38/1 376/47/1
f 377/72/1 378/73/1 379/70/1 380/69/1
f 381/73/1 382/74/1 383/71/1 384/70/1
f 385/75/1 386/76/1 387/77/1 388/78/1
f 389/75/1 390/76/1 391/77/1 392/78/1
f 393/75/1 394/76/1 395/77/1 396/78/1
f 397/75/1 398/76/1 399/77/1 400/78/1
f 401/75/1 402/76/1 403/77/1 404/78/1
f 405/75/1 406/76/1 407/77/1 408/78/1
f 409/75/1 410/76/1 411/77/1 412/78/1
f 413/76/1 414/79/1 415/80/1 416/77/1
f 417/41/1 418/42/1 419/43/1 420/44/1
f 421/46/1 422/35/1 423/38/1 424/47/1
f 425/46/1 426/35/1 427/38/1 428/47/1
f 429/54/1 430/53/1 431/28/1 432/27/1
f 433/81/1 434/82/1 435/76/1 436/75/1
f 437/83/1 438/84/1 439/85/1 440/86/1
f 441/81/1 442/82/1 443/76/1 444/75/1
f 445/81/1 446/82/1 447/76/1 448/75/1
f 449/81/1 450/82/1 451/76/1 452/75/1
f 453/81/1 454/82/1 455/76/1 456/75/1
f 457/83/1 458/84/1 459/85/1 460/86/1
f 461/82/1 462/87/1 463/79/1 464/76/1
f 465/49/1 466/50/1 467/42/1 468/41/1
f 469/54/1 470/53/1 471/28/1 472/27/1
f 473/85/1 474/88/1 475/82/1 476/81/1
f 477/85/1 478/88/1 479/82/1 480/81/1
f 481/85/1 482/88/1 483/82/1 484/81/1
f 485/85/1 486/88/1 487/82/1 488/81/1
f 489/85/1 490/88/1 491/82/1 492/81/1
f 493/85/1 494/88/1 495/82/1 496/81/1
f 497/85/1 498/88/1 499/82/1 500/81/1
f 501/88/1 502/89/1 503/87/1 504/82/1
f 505/39/1 506/13/1 507/14/1 508/40/1

