# Tiled2Unity generated file. Do not modify by hand.
# Wavefront file for 'Testmap_mesh_0003.obj'

# Vertices (Count = 68)
v -41600 -16000 0
v -44800 -16000 0
v -44800 -12800 0
v -41600 -12800 0
v -76800 -16000 0
v -80000 -16000 0
v -80000 -12800 0
v -76800 -12800 0
v -137600 -16000 0
v -140800 -16000 0
v -140800 -12800 0
v -137600 -12800 0
v -144000 -32000 0
v -147200 -32000 0
v -147200 -28800 0
v -144000 -28800 0
v -89600 -38400 0
v -92800 -38400 0
v -92800 -35200 0
v -89600 -35200 0
v -6400 -41600 0
v -9600 -41600 0
v -9600 -38400 0
v -6400 -38400 0
v -153600 -48000 0
v -156800 -48000 0
v -156800 -44800 0
v -153600 -44800 0
v -169600 -51200 0
v -172800 -51200 0
v -172800 -48000 0
v -169600 -48000 0
v -22400 -67200 0
v -25600 -67200 0
v -25600 -64000 0
v -22400 -64000 0
v -38400 -67200 0
v -41600 -67200 0
v -41600 -64000 0
v -38400 -64000 0
v -166400 -76800 0
v -169600 -76800 0
v -169600 -73600 0
v -166400 -73600 0
v -12800 -83200 0
v -16000 -83200 0
v -16000 -80000 0
v -12800 -80000 0
v -118400 -83200 0
v -121600 -83200 0
v -121600 -80000 0
v -118400 -80000 0
v -147200 -96000 0
v -150400 -96000 0
v -150400 -92800 0
v -147200 -92800 0
v -19200 -102400 0
v -22400 -102400 0
v -22400 -99200 0
v -19200 -99200 0
v -96000 -102400 0
v -99200 -102400 0
v -99200 -99200 0
v -96000 -99200 0
v -70400 -105600 0
v -73600 -105600 0
v -73600 -102400 0
v -70400 -102400 0

# Texture cooridinates (Count = 6)
vt 0 0
vt 0.5 0
vt 0.5 1
vt 0 1
vt 1 0
vt 1 1

# Normal
vn 0 0 -1

# Mesh description
g Testmap_mesh_0003

# Faces
f 1/1/1 2/2/1 3/3/1 4/4/1
f 5/2/1 6/5/1 7/6/1 8/3/1
f 9/1/1 10/2/1 11/3/1 12/4/1
f 13/1/1 14/2/1 15/3/1 16/4/1
f 17/1/1 18/2/1 19/3/1 20/4/1
f 21/2/1 22/5/1 23/6/1 24/3/1
f 25/1/1 26/2/1 27/3/1 28/4/1
f 29/1/1 30/2/1 31/3/1 32/4/1
f 33/2/1 34/5/1 35/6/1 36/3/1
f 37/1/1 38/2/1 39/3/1 40/4/1
f 41/2/1 42/5/1 43/6/1 44/3/1
f 45/1/1 46/2/1 47/3/1 48/4/1
f 49/1/1 50/2/1 51/3/1 52/4/1
f 53/2/1 54/5/1 55/6/1 56/3/1
f 57/1/1 58/2/1 59/3/1 60/4/1
f 61/2/1 62/5/1 63/6/1 64/3/1
f 65/1/1 66/2/1 67/3/1 68/4/1

