# Tiled2Unity generated file. Do not modify by hand.
# Wavefront file for 'Testmap_mesh_0006.obj'

# Vertices (Count = 72)
v -172800 -16000 0
v -176000 -16000 0
v -176000 -12800 0
v -172800 -12800 0
v -176000 -16000 0
v -179200 -16000 0
v -179200 -12800 0
v -176000 -12800 0
v -172800 -19200 0
v -176000 -19200 0
v -176000 -16000 0
v -172800 -16000 0
v -176000 -19200 0
v -179200 -19200 0
v -179200 -16000 0
v -176000 -16000 0
v -51200 -25600 0
v -54400 -25600 0
v -54400 -22400 0
v -51200 -22400 0
v -51200 -28800 0
v -54400 -28800 0
v -54400 -25600 0
v -51200 -25600 0
v -6400 -70400 0
v -9600 -70400 0
v -9600 -67200 0
v -6400 -67200 0
v -6400 -73600 0
v -9600 -73600 0
v -9600 -70400 0
v -6400 -70400 0
v -163200 -83200 0
v -166400 -83200 0
v -166400 -80000 0
v -163200 -80000 0
v -166400 -83200 0
v -169600 -83200 0
v -169600 -80000 0
v -166400 -80000 0
v -86400 -86400 0
v -89600 -86400 0
v -89600 -83200 0
v -86400 -83200 0
v -89600 -86400 0
v -92800 -86400 0
v -92800 -83200 0
v -89600 -83200 0
v -163200 -86400 0
v -166400 -86400 0
v -166400 -83200 0
v -163200 -83200 0
v -166400 -86400 0
v -169600 -86400 0
v -169600 -83200 0
v -166400 -83200 0
v -86400 -89600 0
v -89600 -89600 0
v -89600 -86400 0
v -86400 -86400 0
v -89600 -89600 0
v -92800 -89600 0
v -92800 -86400 0
v -89600 -86400 0
v -41600 -99200 0
v -44800 -99200 0
v -44800 -96000 0
v -41600 -96000 0
v -41600 -102400 0
v -44800 -102400 0
v -44800 -99200 0
v -41600 -99200 0

# Texture cooridinates (Count = 12)
vt 0.5 0.5
vt 0.75 0.5
vt 0.75 1
vt 0.5 1
vt 1 0.5
vt 1 1
vt 0.5 0
vt 0.75 0
vt 1 0
vt 0.25 0.5
vt 0.25 1
vt 0.25 0

# Normal
vn 0 0 -1

# Mesh description
g Testmap_mesh_0006

# Faces
f 1/1/1 2/2/1 3/3/1 4/4/1
f 5/2/1 6/5/1 7/6/1 8/3/1
f 9/7/1 10/8/1 11/2/1 12/1/1
f 13/8/1 14/9/1 15/5/1 16/2/1
f 17/10/1 18/1/1 19/4/1 20/11/1
f 21/12/1 22/7/1 23/1/1 24/10/1
f 25/10/1 26/1/1 27/4/1 28/11/1
f 29/12/1 30/7/1 31/1/1 32/10/1
f 33/1/1 34/2/1 35/3/1 36/4/1
f 37/2/1 38/5/1 39/6/1 40/3/1
f 41/1/1 42/2/1 43/3/1 44/4/1
f 45/2/1 46/5/1 47/6/1 48/3/1
f 49/7/1 50/8/1 51/2/1 52/1/1
f 53/8/1 54/9/1 55/5/1 56/2/1
f 57/7/1 58/8/1 59/2/1 60/1/1
f 61/8/1 62/9/1 63/5/1 64/2/1
f 65/10/1 66/1/1 67/4/1 68/11/1
f 69/12/1 70/7/1 71/1/1 72/10/1

