# Tiled2Unity generated file. Do not modify by hand.
# Wavefront file for 'newmap_mesh_0003.obj'

# Vertices (Count = 804)
v -2 -1 0
v -3 -1 0
v -3 0 0
v -2 0 0
v -4 -1 0
v -5 -1 0
v -5 0 0
v -4 0 0
v -21 -1 0
v -22 -1 0
v -22 0 0
v -21 0 0
v -26 -1 0
v -27 -1 0
v -27 0 0
v -26 0 0
v -27 -1 0
v -28 -1 0
v -28 0 0
v -27 0 0
v -28 -1 0
v -29 -1 0
v -29 0 0
v -28 0 0
v -29 -1 0
v -30 -1 0
v -30 0 0
v -29 0 0
v -2 -2 0
v -3 -2 0
v -3 -1 0
v -2 -1 0
v -3 -2 0
v -4 -2 0
v -4 -1 0
v -3 -1 0
v -4 -2 0
v -5 -2 0
v -5 -1 0
v -4 -1 0
v -5 -2 0
v -6 -2 0
v -6 -1 0
v -5 -1 0
v -6 -2 0
v -7 -2 0
v -7 -1 0
v -6 -1 0
v -8 -2 0
v -9 -2 0
v -9 -1 0
v -8 -1 0
v -9 -2 0
v -10 -2 0
v -10 -1 0
v -9 -1 0
v -10 -2 0
v -11 -2 0
v -11 -1 0
v -10 -1 0
v -11 -2 0
v -12 -2 0
v -12 -1 0
v -11 -1 0
v -26 -2 0
v -27 -2 0
v -27 -1 0
v -26 -1 0
v -27 -2 0
v -28 -2 0
v -28 -1 0
v -27 -1 0
v -28 -2 0
v -29 -2 0
v -29 -1 0
v -28 -1 0
v -29 -2 0
v -30 -2 0
v -30 -1 0
v -29 -1 0
v -2 -3 0
v -3 -3 0
v -3 -2 0
v -2 -2 0
v -3 -3 0
v -4 -3 0
v -4 -2 0
v -3 -2 0
v -4 -3 0
v -5 -3 0
v -5 -2 0
v -4 -2 0
v -5 -3 0
v -6 -3 0
v -6 -2 0
v -5 -2 0
v -6 -3 0
v -7 -3 0
v -7 -2 0
v -6 -2 0
v -7 -3 0
v -8 -3 0
v -8 -2 0
v -7 -2 0
v -8 -3 0
v -9 -3 0
v -9 -2 0
v -8 -2 0
v -9 -3 0
v -10 -3 0
v -10 -2 0
v -9 -2 0
v -10 -3 0
v -11 -3 0
v -11 -2 0
v -10 -2 0
v -11 -3 0
v -12 -3 0
v -12 -2 0
v -11 -2 0
v -12 -3 0
v -13 -3 0
v -13 -2 0
v -12 -2 0
v -13 -3 0
v -14 -3 0
v -14 -2 0
v -13 -2 0
v -14 -3 0
v -15 -3 0
v -15 -2 0
v -14 -2 0
v -19 -3 0
v -20 -3 0
v -20 -2 0
v -19 -2 0
v -20 -3 0
v -21 -3 0
v -21 -2 0
v -20 -2 0
v -26 -3 0
v -27 -3 0
v -27 -2 0
v -26 -2 0
v -27 -3 0
v -28 -3 0
v -28 -2 0
v -27 -2 0
v -28 -3 0
v -29 -3 0
v -29 -2 0
v -28 -2 0
v -29 -3 0
v -30 -3 0
v -30 -2 0
v -29 -2 0
v -2 -4 0
v -3 -4 0
v -3 -3 0
v -2 -3 0
v -3 -4 0
v -4 -4 0
v -4 -3 0
v -3 -3 0
v -4 -4 0
v -5 -4 0
v -5 -3 0
v -4 -3 0
v -5 -4 0
v -6 -4 0
v -6 -3 0
v -5 -3 0
v -6 -4 0
v -7 -4 0
v -7 -3 0
v -6 -3 0
v -7 -4 0
v -8 -4 0
v -8 -3 0
v -7 -3 0
v -8 -4 0
v -9 -4 0
v -9 -3 0
v -8 -3 0
v -9 -4 0
v -10 -4 0
v -10 -3 0
v -9 -3 0
v -10 -4 0
v -11 -4 0
v -11 -3 0
v -10 -3 0
v -11 -4 0
v -12 -4 0
v -12 -3 0
v -11 -3 0
v -12 -4 0
v -13 -4 0
v -13 -3 0
v -12 -3 0
v -13 -4 0
v -14 -4 0
v -14 -3 0
v -13 -3 0
v -14 -4 0
v -15 -4 0
v -15 -3 0
v -14 -3 0
v -19 -4 0
v -20 -4 0
v -20 -3 0
v -19 -3 0
v -20 -4 0
v -21 -4 0
v -21 -3 0
v -20 -3 0
v -23 -4 0
v -24 -4 0
v -24 -3 0
v -23 -3 0
v -24 -4 0
v -25 -4 0
v -25 -3 0
v -24 -3 0
v -25 -4 0
v -26 -4 0
v -26 -3 0
v -25 -3 0
v -26 -4 0
v -27 -4 0
v -27 -3 0
v -26 -3 0
v -27 -4 0
v -28 -4 0
v -28 -3 0
v -27 -3 0
v -28 -4 0
v -29 -4 0
v -29 -3 0
v -28 -3 0
v -3 -5 0
v -4 -5 0
v -4 -4 0
v -3 -4 0
v -4 -5 0
v -5 -5 0
v -5 -4 0
v -4 -4 0
v -5 -5 0
v -6 -5 0
v -6 -4 0
v -5 -4 0
v -6 -5 0
v -7 -5 0
v -7 -4 0
v -6 -4 0
v -7 -5 0
v -8 -5 0
v -8 -4 0
v -7 -4 0
v -8 -5 0
v -9 -5 0
v -9 -4 0
v -8 -4 0
v -9 -5 0
v -10 -5 0
v -10 -4 0
v -9 -4 0
v -10 -5 0
v -11 -5 0
v -11 -4 0
v -10 -4 0
v -11 -5 0
v -12 -5 0
v -12 -4 0
v -11 -4 0
v -12 -5 0
v -13 -5 0
v -13 -4 0
v -12 -4 0
v -13 -5 0
v -14 -5 0
v -14 -4 0
v -13 -4 0
v -14 -5 0
v -15 -5 0
v -15 -4 0
v -14 -4 0
v -23 -5 0
v -24 -5 0
v -24 -4 0
v -23 -4 0
v -24 -5 0
v -25 -5 0
v -25 -4 0
v -24 -4 0
v -25 -5 0
v -26 -5 0
v -26 -4 0
v -25 -4 0
v -3 -6 0
v -4 -6 0
v -4 -5 0
v -3 -5 0
v -4 -6 0
v -5 -6 0
v -5 -5 0
v -4 -5 0
v -5 -6 0
v -6 -6 0
v -6 -5 0
v -5 -5 0
v -6 -6 0
v -7 -6 0
v -7 -5 0
v -6 -5 0
v -7 -6 0
v -8 -6 0
v -8 -5 0
v -7 -5 0
v -8 -6 0
v -9 -6 0
v -9 -5 0
v -8 -5 0
v -9 -6 0
v -10 -6 0
v -10 -5 0
v -9 -5 0
v -10 -6 0
v -11 -6 0
v -11 -5 0
v -10 -5 0
v -11 -6 0
v -12 -6 0
v -12 -5 0
v -11 -5 0
v -12 -6 0
v -13 -6 0
v -13 -5 0
v -12 -5 0
v -13 -6 0
v -14 -6 0
v -14 -5 0
v -13 -5 0
v -14 -6 0
v -15 -6 0
v -15 -5 0
v -14 -5 0
v -15 -6 0
v -16 -6 0
v -16 -5 0
v -15 -5 0
v -16 -6 0
v -17 -6 0
v -17 -5 0
v -16 -5 0
v -17 -6 0
v -18 -6 0
v -18 -5 0
v -17 -5 0
v -18 -6 0
v -19 -6 0
v -19 -5 0
v -18 -5 0
v -23 -6 0
v -24 -6 0
v -24 -5 0
v -23 -5 0
v -24 -6 0
v -25 -6 0
v -25 -5 0
v -24 -5 0
v -25 -6 0
v -26 -6 0
v -26 -5 0
v -25 -5 0
v -2 -7 0
v -3 -7 0
v -3 -6 0
v -2 -6 0
v -3 -7 0
v -4 -7 0
v -4 -6 0
v -3 -6 0
v -4 -7 0
v -5 -7 0
v -5 -6 0
v -4 -6 0
v -5 -7 0
v -6 -7 0
v -6 -6 0
v -5 -6 0
v -6 -7 0
v -7 -7 0
v -7 -6 0
v -6 -6 0
v -7 -7 0
v -8 -7 0
v -8 -6 0
v -7 -6 0
v -8 -7 0
v -9 -7 0
v -9 -6 0
v -8 -6 0
v -9 -7 0
v -10 -7 0
v -10 -6 0
v -9 -6 0
v -10 -7 0
v -11 -7 0
v -11 -6 0
v -10 -6 0
v -11 -7 0
v -12 -7 0
v -12 -6 0
v -11 -6 0
v -12 -7 0
v -13 -7 0
v -13 -6 0
v -12 -6 0
v -13 -7 0
v -14 -7 0
v -14 -6 0
v -13 -6 0
v -14 -7 0
v -15 -7 0
v -15 -6 0
v -14 -6 0
v -15 -7 0
v -16 -7 0
v -16 -6 0
v -15 -6 0
v -16 -7 0
v -17 -7 0
v -17 -6 0
v -16 -6 0
v -17 -7 0
v -18 -7 0
v -18 -6 0
v -17 -6 0
v -18 -7 0
v -19 -7 0
v -19 -6 0
v -18 -6 0
v -23 -7 0
v -24 -7 0
v -24 -6 0
v -23 -6 0
v -24 -7 0
v -25 -7 0
v -25 -6 0
v -24 -6 0
v -25 -7 0
v -26 -7 0
v -26 -6 0
v -25 -6 0
v -26 -7 0
v -27 -7 0
v -27 -6 0
v -26 -6 0
v -4 -8 0
v -5 -8 0
v -5 -7 0
v -4 -7 0
v -5 -8 0
v -6 -8 0
v -6 -7 0
v -5 -7 0
v -6 -8 0
v -7 -8 0
v -7 -7 0
v -6 -7 0
v -7 -8 0
v -8 -8 0
v -8 -7 0
v -7 -7 0
v -8 -8 0
v -9 -8 0
v -9 -7 0
v -8 -7 0
v -9 -8 0
v -10 -8 0
v -10 -7 0
v -9 -7 0
v -10 -8 0
v -11 -8 0
v -11 -7 0
v -10 -7 0
v -11 -8 0
v -12 -8 0
v -12 -7 0
v -11 -7 0
v -12 -8 0
v -13 -8 0
v -13 -7 0
v -12 -7 0
v -13 -8 0
v -14 -8 0
v -14 -7 0
v -13 -7 0
v -14 -8 0
v -15 -8 0
v -15 -7 0
v -14 -7 0
v -15 -8 0
v -16 -8 0
v -16 -7 0
v -15 -7 0
v -16 -8 0
v -17 -8 0
v -17 -7 0
v -16 -7 0
v -17 -8 0
v -18 -8 0
v -18 -7 0
v -17 -7 0
v -18 -8 0
v -19 -8 0
v -19 -7 0
v -18 -7 0
v -24 -8 0
v -25 -8 0
v -25 -7 0
v -24 -7 0
v -25 -8 0
v -26 -8 0
v -26 -7 0
v -25 -7 0
v -26 -8 0
v -27 -8 0
v -27 -7 0
v -26 -7 0
v -6 -9 0
v -7 -9 0
v -7 -8 0
v -6 -8 0
v -7 -9 0
v -8 -9 0
v -8 -8 0
v -7 -8 0
v -8 -9 0
v -9 -9 0
v -9 -8 0
v -8 -8 0
v -9 -9 0
v -10 -9 0
v -10 -8 0
v -9 -8 0
v -10 -9 0
v -11 -9 0
v -11 -8 0
v -10 -8 0
v -11 -9 0
v -12 -9 0
v -12 -8 0
v -11 -8 0
v -12 -9 0
v -13 -9 0
v -13 -8 0
v -12 -8 0
v -13 -9 0
v -14 -9 0
v -14 -8 0
v -13 -8 0
v -14 -9 0
v -15 -9 0
v -15 -8 0
v -14 -8 0
v -15 -9 0
v -16 -9 0
v -16 -8 0
v -15 -8 0
v -16 -9 0
v -17 -9 0
v -17 -8 0
v -16 -8 0
v -17 -9 0
v -18 -9 0
v -18 -8 0
v -17 -8 0
v -24 -9 0
v -25 -9 0
v -25 -8 0
v -24 -8 0
v -25 -9 0
v -26 -9 0
v -26 -8 0
v -25 -8 0
v 0 -10 0
v -1 -10 0
v -1 -9 0
v 0 -9 0
v -8 -10 0
v -9 -10 0
v -9 -9 0
v -8 -9 0
v -9 -10 0
v -10 -10 0
v -10 -9 0
v -9 -9 0
v -10 -10 0
v -11 -10 0
v -11 -9 0
v -10 -9 0
v -11 -10 0
v -12 -10 0
v -12 -9 0
v -11 -9 0
v -12 -10 0
v -13 -10 0
v -13 -9 0
v -12 -9 0
v -13 -10 0
v -14 -10 0
v -14 -9 0
v -13 -9 0
v -14 -10 0
v -15 -10 0
v -15 -9 0
v -14 -9 0
v -15 -10 0
v -16 -10 0
v -16 -9 0
v -15 -9 0
v -16 -10 0
v -17 -10 0
v -17 -9 0
v -16 -9 0
v -17 -10 0
v -18 -10 0
v -18 -9 0
v -17 -9 0
v -21 -10 0
v -22 -10 0
v -22 -9 0
v -21 -9 0
v -24 -10 0
v -25 -10 0
v -25 -9 0
v -24 -9 0
v -25 -10 0
v -26 -10 0
v -26 -9 0
v -25 -9 0
v -7 -11 0
v -8 -11 0
v -8 -10 0
v -7 -10 0
v -8 -11 0
v -9 -11 0
v -9 -10 0
v -8 -10 0
v -9 -11 0
v -10 -11 0
v -10 -10 0
v -9 -10 0
v -10 -11 0
v -11 -11 0
v -11 -10 0
v -10 -10 0
v -11 -11 0
v -12 -11 0
v -12 -10 0
v -11 -10 0
v -12 -11 0
v -13 -11 0
v -13 -10 0
v -12 -10 0
v -13 -11 0
v -14 -11 0
v -14 -10 0
v -13 -10 0
v -14 -11 0
v -15 -11 0
v -15 -10 0
v -14 -10 0
v -15 -11 0
v -16 -11 0
v -16 -10 0
v -15 -10 0
v -4 -12 0
v -5 -12 0
v -5 -11 0
v -4 -11 0
v -2 -13 0
v -3 -13 0
v -3 -12 0
v -2 -12 0
v -22 -13 0
v -23 -13 0
v -23 -12 0
v -22 -12 0
v -23 -13 0
v -24 -13 0
v -24 -12 0
v -23 -12 0
v -24 -13 0
v -25 -13 0
v -25 -12 0
v -24 -12 0
v -25 -13 0
v -26 -13 0
v -26 -12 0
v -25 -12 0
v -7 -14 0
v -8 -14 0
v -8 -13 0
v -7 -13 0
v -13 -14 0
v -14 -14 0
v -14 -13 0
v -13 -13 0
v -22 -14 0
v -23 -14 0
v -23 -13 0
v -22 -13 0
v -23 -14 0
v -24 -14 0
v -24 -13 0
v -23 -13 0
v -24 -14 0
v -25 -14 0
v -25 -13 0
v -24 -13 0
v -25 -14 0
v -26 -14 0
v -26 -13 0
v -25 -13 0
v -26 -14 0
v -27 -14 0
v -27 -13 0
v -26 -13 0
v -10 -15 0
v -11 -15 0
v -11 -14 0
v -10 -14 0
v -18 -15 0
v -19 -15 0
v -19 -14 0
v -18 -14 0
v -22 -15 0
v -23 -15 0
v -23 -14 0
v -22 -14 0
v -23 -15 0
v -24 -15 0
v -24 -14 0
v -23 -14 0
v -24 -15 0
v -25 -15 0
v -25 -14 0
v -24 -14 0
v -25 -15 0
v -26 -15 0
v -26 -14 0
v -25 -14 0
v -26 -15 0
v -27 -15 0
v -27 -14 0
v -26 -14 0
v 0 -16 0
v -1 -16 0
v -1 -15 0
v 0 -15 0
v -1 -16 0
v -2 -16 0
v -2 -15 0
v -1 -15 0
v -3 -16 0
v -4 -16 0
v -4 -15 0
v -3 -15 0
v -23 -16 0
v -24 -16 0
v -24 -15 0
v -23 -15 0
v -24 -16 0
v -25 -16 0
v -25 -15 0
v -24 -15 0
v -25 -16 0
v -26 -16 0
v -26 -15 0
v -25 -15 0
v -26 -16 0
v -27 -16 0
v -27 -15 0
v -26 -15 0
v 0 -17 0
v -1 -17 0
v -1 -16 0
v 0 -16 0
v -1 -17 0
v -2 -17 0
v -2 -16 0
v -1 -16 0
v -3 -17 0
v -4 -17 0
v -4 -16 0
v -3 -16 0
v -15 -17 0
v -16 -17 0
v -16 -16 0
v -15 -16 0

# Texture cooridinates (Count = 169)
vt 0.1875 0.9375
vt 0.21875 0.9375
vt 0.21875 0.96875
vt 0.1875 0.96875
vt 0.25 0.9375
vt 0.25 0.96875
vt 0.46875 0.9375
vt 0.5 0.9375
vt 0.5 0.96875
vt 0.46875 0.96875
vt 0.5 0.8125
vt 0.53125 0.8125
vt 0.53125 0.84375
vt 0.5 0.84375
vt 0.375 0.6875
vt 0.40625 0.6875
vt 0.40625 0.71875
vt 0.375 0.71875
vt 0.4375 0.6875
vt 0.4375 0.71875
vt 0.03125 0.8125
vt 0.0625 0.8125
vt 0.0625 0.84375
vt 0.03125 0.84375
vt 0.09375 0.8125
vt 0.09375 0.84375
vt 0.21875 0.90625
vt 0.25 0.90625
vt 0.5625 0.8125
vt 0.5625 0.84375
vt 0.40625 0.75
vt 0.375 0.75
vt 0.4375 0.75
vt 0.46875 0.75
vt 0.46875 0.78125
vt 0.4375 0.78125
vt 0.03125 0.78125
vt 0.0625 0.78125
vt 0.09375 0.78125
vt 0.21875 0.875
vt 0.25 0.875
vt 0.3125 0.75
vt 0.34375 0.75
vt 0.34375 0.78125
vt 0.3125 0.78125
vt 0.5 0.875
vt 0.53125 0.875
vt 0.53125 0.90625
vt 0.5 0.90625
vt 0 0.71875
vt 0.03125 0.71875
vt 0.03125 0.75
vt 0 0.75
vt 0.8125 0.3125
vt 0.84375 0.3125
vt 0.84375 0.34375
vt 0.8125 0.34375
vt 0.875 0.3125
vt 0.875 0.34375
vt 0.40625 0.78125
vt 0.4375 0.8125
vt 0.40625 0.8125
vt 0.40625 0.65625
vt 0.4375 0.65625
vt 0.0625 0.75
vt 0.09375 0.75
vt 0.8125 0.28125
vt 0.84375 0.28125
vt 0.875 0.28125
vt 0.25 0.34375
vt 0.28125 0.34375
vt 0.28125 0.375
vt 0.25 0.375
vt 0.3125 0.34375
vt 0.3125 0.375
vt 0.34375 0.34375
vt 0.34375 0.375
vt 0.375 0.65625
vt 0.46875 0.65625
vt 0.46875 0.6875
vt 0.75 0.90625
vt 0.78125 0.90625
vt 0.78125 0.9375
vt 0.75 0.9375
vt 0.8125 0.90625
vt 0.8125 0.9375
vt 0.84375 0.90625
vt 0.84375 0.9375
vt 0.25 0.3125
vt 0.28125 0.3125
vt 0.3125 0.3125
vt 0.34375 0.3125
vt 0.75 0.875
vt 0.78125 0.875
vt 0.8125 0.875
vt 0.84375 0.875
vt 0.5 1
vt 0.46875 1
vt 0.46875 0.90625
vt 0.53125 0.9375
vt 0.5625 0.90625
vt 0.5625 0.9375
vt 0.25 0.28125
vt 0.28125 0.28125
vt 0.375 0.3125
vt 0.375 0.34375
vt 0.40625 0.3125
vt 0.40625 0.34375
vt 0.46875 0.8125
vt 0.46875 0.84375
vt 0.46875 0.875
vt 0.5625 0.875
vt 0.25 0.25
vt 0.28125 0.25
vt 0.34375 0.28125
vt 0.375 0.28125
vt 0.40625 0.28125
vt 0.5625 0.96875
vt 0.53125 0.96875
vt 0.53125 1
vt 0.3125 0.25
vt 0.3125 0.28125
vt 0.34375 0.25
vt 0.75 0.84375
vt 0.78125 0.84375
vt 0.8125 0.84375
vt 0.84375 0.84375
vt 0.90625 0.3125
vt 0.90625 0.34375
vt 0.9375 0.3125
vt 0.9375 0.34375
vt 0.90625 0.28125
vt 0.9375 0.28125
vt 0.78125 0.96875
vt 0.75 0.96875
vt 0.59375 0.90625
vt 0.59375 0.9375
vt 0.625 0.90625
vt 0.625 0.9375
vt 0.65625 0.90625
vt 0.65625 0.9375
vt 0.59375 0.875
vt 0.59375 0.8125
vt 0.625 0.8125
vt 0.625 0.84375
vt 0.59375 0.84375
vt 0.625 0.96875
vt 0.59375 0.96875
vt 0.78125 1
vt 0.75 1
vt 0.375 0.78125
vt 0.65625 0.96875
vt 0.65625 1
vt 0.625 1
vt 0.625 0.875
vt 0.65625 0.875
vt 0.125 0.09375
vt 0.15625 0.09375
vt 0.15625 0.125
vt 0.125 0.125
vt 0.1875 0.09375
vt 0.1875 0.125
vt 0.96875 0.3125
vt 0.96875 0.34375
vt 0.65625 0.84375
vt 0.125 0.0625
vt 0.15625 0.0625
vt 0.1875 0.0625
vt 0.96875 0.28125

# Normal
vn 0 0 -1

# Mesh description
g newmap_mesh_0003

# Faces
f 1/1/1 2/2/1 3/3/1 4/4/1
f 5/2/1 6/5/1 7/6/1 8/3/1
f 9/7/1 10/8/1 11/9/1 12/10/1
f 13/11/1 14/12/1 15/13/1 16/14/1
f 17/15/1 18/16/1 19/17/1 20/18/1
f 21/16/1 22/19/1 23/20/1 24/17/1
f 25/16/1 26/19/1 27/20/1 28/17/1
f 29/21/1 30/22/1 31/23/1 32/24/1
f 33/22/1 34/25/1 35/26/1 36/23/1
f 37/27/1 38/28/1 39/5/1 40/2/1
f 41/12/1 42/29/1 43/30/1 44/13/1
f 45/12/1 46/29/1 47/30/1 48/13/1
f 49/12/1 50/29/1 51/30/1 52/13/1
f 53/12/1 54/29/1 55/30/1 56/13/1
f 57/12/1 58/29/1 59/30/1 60/13/1
f 61/12/1 62/29/1 63/30/1 64/13/1
f 65/18/1 66/17/1 67/31/1 68/32/1
f 69/33/1 70/34/1 71/35/1 72/36/1
f 73/16/1 74/19/1 75/20/1 76/17/1
f 77/16/1 78/19/1 79/20/1 80/17/1
f 81/37/1 82/38/1 83/22/1 84/21/1
f 85/38/1 86/39/1 87/25/1 88/22/1
f 89/40/1 90/41/1 91/28/1 92/27/1
f 93/12/1 94/29/1 95/30/1 96/13/1
f 97/12/1 98/29/1 99/30/1 100/13/1
f 101/12/1 102/29/1 103/30/1 104/13/1
f 105/12/1 106/29/1 107/30/1 108/13/1
f 109/12/1 110/29/1 111/30/1 112/13/1
f 113/42/1 114/43/1 115/44/1 116/45/1
f 117/12/1 118/29/1 119/30/1 120/13/1
f 121/46/1 122/47/1 123/48/1 124/49/1
f 125/46/1 126/47/1 127/48/1 128/49/1
f 129/50/1 130/51/1 131/52/1 132/53/1
f 133/54/1 134/55/1 135/56/1 136/57/1
f 137/55/1 138/58/1 139/59/1 140/56/1
f 141/15/1 142/16/1 143/17/1 144/18/1
f 145/16/1 146/19/1 147/20/1 148/17/1
f 149/60/1 150/36/1 151/61/1 152/62/1
f 153/63/1 154/64/1 155/19/1 156/16/1
f 157/52/1 158/65/1 159/38/1 160/37/1
f 161/65/1 162/66/1 163/39/1 164/38/1
f 165/46/1 166/47/1 167/48/1 168/49/1
f 169/46/1 170/47/1 171/48/1 172/49/1
f 173/46/1 174/47/1 175/48/1 176/49/1
f 177/12/1 178/29/1 179/30/1 180/13/1
f 181/46/1 182/47/1 183/48/1 184/49/1
f 185/46/1 186/47/1 187/48/1 188/49/1
f 189/46/1 190/47/1 191/48/1 192/49/1
f 193/46/1 194/47/1 195/48/1 196/49/1
f 197/46/1 198/47/1 199/48/1 200/49/1
f 201/46/1 202/47/1 203/48/1 204/49/1
f 205/46/1 206/47/1 207/48/1 208/49/1
f 209/67/1 210/68/1 211/55/1 212/54/1
f 213/68/1 214/69/1 215/58/1 216/55/1
f 217/70/1 218/71/1 219/72/1 220/73/1
f 221/71/1 222/74/1 223/75/1 224/72/1
f 225/74/1 226/76/1 227/77/1 228/75/1
f 229/78/1 230/63/1 231/16/1 232/15/1
f 233/63/1 234/64/1 235/19/1 236/16/1
f 237/64/1 238/79/1 239/80/1 240/19/1
f 241/12/1 242/29/1 243/30/1 244/13/1
f 245/46/1 246/47/1 247/48/1 248/49/1
f 249/46/1 250/47/1 251/48/1 252/49/1
f 253/81/1 254/82/1 255/83/1 256/84/1
f 257/82/1 258/85/1 259/86/1 260/83/1
f 261/85/1 262/87/1 263/88/1 264/86/1
f 265/46/1 266/47/1 267/48/1 268/49/1
f 269/46/1 270/47/1 271/48/1 272/49/1
f 273/46/1 274/47/1 275/48/1 276/49/1
f 277/46/1 278/47/1 279/48/1 280/49/1
f 281/46/1 282/47/1 283/48/1 284/49/1
f 285/46/1 286/47/1 287/48/1 288/49/1
f 289/89/1 290/90/1 291/71/1 292/70/1
f 293/90/1 294/91/1 295/74/1 296/71/1
f 297/91/1 298/92/1 299/76/1 300/74/1
f 301/12/1 302/29/1 303/30/1 304/13/1
f 305/46/1 306/47/1 307/48/1 308/49/1
f 309/46/1 310/47/1 311/48/1 312/49/1
f 313/93/1 314/94/1 315/82/1 316/81/1
f 317/94/1 318/95/1 319/85/1 320/82/1
f 321/95/1 322/96/1 323/87/1 324/85/1
f 325/46/1 326/47/1 327/48/1 328/49/1
f 329/10/1 330/9/1 331/97/1 332/98/1
f 333/46/1 334/47/1 335/48/1 336/49/1
f 337/46/1 338/47/1 339/48/1 340/49/1
f 341/46/1 342/47/1 343/48/1 344/49/1
f 345/46/1 346/47/1 347/48/1 348/49/1
f 349/99/1 350/49/1 351/8/1 352/7/1
f 353/49/1 354/48/1 355/100/1 356/8/1
f 357/49/1 358/48/1 359/100/1 360/8/1
f 361/48/1 362/101/1 363/102/1 364/100/1
f 365/103/1 366/104/1 367/90/1 368/89/1
f 369/92/1 370/105/1 371/106/1 372/76/1
f 373/105/1 374/107/1 375/108/1 376/106/1
f 377/109/1 378/11/1 379/14/1 380/110/1
f 381/12/1 382/29/1 383/30/1 384/13/1
f 385/46/1 386/47/1 387/48/1 388/49/1
f 389/46/1 390/47/1 391/48/1 392/49/1
f 393/93/1 394/94/1 395/82/1 396/81/1
f 397/94/1 398/95/1 399/85/1 400/82/1
f 401/95/1 402/96/1 403/87/1 404/85/1
f 405/46/1 406/47/1 407/48/1 408/49/1
f 409/46/1 410/47/1 411/48/1 412/49/1
f 413/46/1 414/47/1 415/48/1 416/49/1
f 417/46/1 418/47/1 419/48/1 420/49/1
f 421/46/1 422/47/1 423/48/1 424/49/1
f 425/46/1 426/47/1 427/48/1 428/49/1
f 429/111/1 430/46/1 431/49/1 432/99/1
f 433/11/1 434/12/1 435/13/1 436/14/1
f 437/11/1 438/12/1 439/13/1 440/14/1
f 441/47/1 442/112/1 443/101/1 444/48/1
f 445/113/1 446/114/1 447/104/1 448/103/1
f 449/115/1 450/116/1 451/105/1 452/92/1
f 453/116/1 454/117/1 455/107/1 456/105/1
f 457/91/1 458/92/1 459/76/1 460/74/1
f 461/7/1 462/8/1 463/9/1 464/10/1
f 465/46/1 466/47/1 467/48/1 468/49/1
f 469/93/1 470/94/1 471/82/1 472/81/1
f 473/94/1 474/95/1 475/85/1 476/82/1
f 477/95/1 478/96/1 479/87/1 480/85/1
f 481/46/1 482/47/1 483/48/1 484/49/1
f 485/46/1 486/47/1 487/48/1 488/49/1
f 489/46/1 490/47/1 491/48/1 492/49/1
f 493/46/1 494/47/1 495/48/1 496/49/1
f 497/99/1 498/49/1 499/8/1 500/7/1
f 501/49/1 502/48/1 503/100/1 504/8/1
f 505/100/1 506/102/1 507/118/1 508/119/1
f 509/11/1 510/12/1 511/13/1 512/14/1
f 513/9/1 514/119/1 515/120/1 516/97/1
f 517/13/1 518/30/1 519/112/1 520/47/1
f 521/113/1 522/114/1 523/104/1 524/103/1
f 525/114/1 526/121/1 527/122/1 528/104/1
f 529/121/1 530/123/1 531/115/1 532/122/1
f 533/124/1 534/125/1 535/94/1 536/93/1
f 537/125/1 538/126/1 539/95/1 540/94/1
f 541/126/1 542/127/1 543/96/1 544/95/1
f 545/46/1 546/47/1 547/48/1 548/49/1
f 549/46/1 550/47/1 551/48/1 552/49/1
f 553/46/1 554/47/1 555/48/1 556/49/1
f 557/46/1 558/47/1 559/48/1 560/49/1
f 561/111/1 562/46/1 563/49/1 564/99/1
f 565/11/1 566/12/1 567/13/1 568/14/1
f 569/10/1 570/9/1 571/97/1 572/98/1
f 573/11/1 574/12/1 575/13/1 576/14/1
f 577/47/1 578/112/1 579/101/1 580/48/1
f 581/54/1 582/55/1 583/56/1 584/57/1
f 585/55/1 586/58/1 587/59/1 588/56/1
f 589/7/1 590/8/1 591/9/1 592/10/1
f 593/12/1 594/29/1 595/30/1 596/13/1
f 597/46/1 598/47/1 599/48/1 600/49/1
f 601/58/1 602/128/1 603/129/1 604/59/1
f 605/128/1 606/130/1 607/131/1 608/129/1
f 609/46/1 610/47/1 611/48/1 612/49/1
f 613/111/1 614/46/1 615/49/1 616/99/1
f 617/10/1 618/9/1 619/97/1 620/98/1
f 621/9/1 622/119/1 623/120/1 624/97/1
f 625/14/1 626/13/1 627/47/1 628/46/1
f 629/13/1 630/30/1 631/112/1 632/47/1
f 633/109/1 634/11/1 635/14/1 636/110/1
f 637/67/1 638/68/1 639/55/1 640/54/1
f 641/68/1 642/69/1 643/58/1 644/55/1
f 645/12/1 646/29/1 647/30/1 648/13/1
f 649/12/1 650/29/1 651/30/1 652/13/1
f 653/12/1 654/29/1 655/30/1 656/13/1
f 657/69/1 658/132/1 659/128/1 660/58/1
f 661/132/1 662/133/1 663/130/1 664/128/1
f 665/12/1 666/29/1 667/30/1 668/13/1
f 669/110/1 670/14/1 671/46/1 672/111/1
f 673/14/1 674/13/1 675/47/1 676/46/1
f 677/13/1 678/30/1 679/112/1 680/47/1
f 681/42/1 682/43/1 683/44/1 684/45/1
f 685/84/1 686/83/1 687/134/1 688/135/1
f 689/101/1 690/136/1 691/137/1 692/102/1
f 693/136/1 694/138/1 695/139/1 696/137/1
f 697/136/1 698/138/1 699/139/1 700/137/1
f 701/138/1 702/140/1 703/141/1 704/139/1
f 705/109/1 706/11/1 707/14/1 708/110/1
f 709/10/1 710/9/1 711/97/1 712/98/1
f 713/112/1 714/142/1 715/136/1 716/101/1
f 717/143/1 718/144/1 719/145/1 720/146/1
f 721/143/1 722/144/1 723/145/1 724/146/1
f 725/137/1 726/139/1 727/147/1 728/148/1
f 729/138/1 730/140/1 731/141/1 732/139/1
f 733/135/1 734/134/1 735/149/1 736/150/1
f 737/43/1 738/32/1 739/151/1 740/44/1
f 741/30/1 742/146/1 743/142/1 744/112/1
f 745/147/1 746/152/1 747/153/1 748/154/1
f 749/29/1 750/143/1 751/146/1 752/30/1
f 753/142/1 754/155/1 755/138/1 756/136/1
f 757/155/1 758/156/1 759/140/1 760/138/1
f 761/157/1 762/158/1 763/159/1 764/160/1
f 765/158/1 766/161/1 767/162/1 768/159/1
f 769/130/1 770/163/1 771/164/1 772/131/1
f 773/30/1 774/146/1 775/142/1 776/112/1
f 777/146/1 778/145/1 779/155/1 780/142/1
f 781/146/1 782/145/1 783/155/1 784/142/1
f 785/145/1 786/165/1 787/156/1 788/155/1
f 789/166/1 790/167/1 791/158/1 792/157/1
f 793/167/1 794/168/1 795/161/1 796/158/1
f 797/133/1 798/169/1 799/163/1 800/130/1
f 801/50/1 802/51/1 803/52/1 804/53/1

